<svg id="visual" viewBox="0 0 900 600" width="900" height="600" xmlns="http://www.w3.org/2000/svg" xmlns:xlink="http://www.w3.org/1999/xlink" version="1.1"><rect x="0" y="0" width="900" height="600" fill="#1F2937"></rect><defs><linearGradient id="grad1_0" x1="33.3%" y1="100%" x2="100%" y2="0%"><stop offset="20%" stop-color="#60c3ad" stop-opacity="1"></stop><stop offset="80%" stop-color="#60c3ad" stop-opacity="1"></stop></linearGradient></defs><defs><linearGradient id="grad1_1" x1="33.3%" y1="100%" x2="100%" y2="0%"><stop offset="20%" stop-color="#60c3ad" stop-opacity="1"></stop><stop offset="80%" stop-color="#3a9a9d" stop-opacity="1"></stop></linearGradient></defs><defs><linearGradient id="grad1_2" x1="33.3%" y1="100%" x2="100%" y2="0%"><stop offset="20%" stop-color="#2c7282" stop-opacity="1"></stop><stop offset="80%" stop-color="#3a9a9d" stop-opacity="1"></stop></linearGradient></defs><defs><linearGradient id="grad1_3" x1="33.3%" y1="100%" x2="100%" y2="0%"><stop offset="20%" stop-color="#2c7282" stop-opacity="1"></stop><stop offset="80%" stop-color="#284b5f" stop-opacity="1"></stop></linearGradient></defs><defs><linearGradient id="grad1_4" x1="33.3%" y1="100%" x2="100%" y2="0%"><stop offset="20%" stop-color="#1f2937" stop-opacity="1"></stop><stop offset="80%" stop-color="#284b5f" stop-opacity="1"></stop></linearGradient></defs><defs><linearGradient id="grad2_0" x1="0%" y1="100%" x2="66.7%" y2="0%"><stop offset="20%" stop-color="#60c3ad" stop-opacity="1"></stop><stop offset="80%" stop-color="#60c3ad" stop-opacity="1"></stop></linearGradient></defs><defs><linearGradient id="grad2_1" x1="0%" y1="100%" x2="66.7%" y2="0%"><stop offset="20%" stop-color="#3a9a9d" stop-opacity="1"></stop><stop offset="80%" stop-color="#60c3ad" stop-opacity="1"></stop></linearGradient></defs><defs><linearGradient id="grad2_2" x1="0%" y1="100%" x2="66.7%" y2="0%"><stop offset="20%" stop-color="#3a9a9d" stop-opacity="1"></stop><stop offset="80%" stop-color="#2c7282" stop-opacity="1"></stop></linearGradient></defs><defs><linearGradient id="grad2_3" x1="0%" y1="100%" x2="66.7%" y2="0%"><stop offset="20%" stop-color="#284b5f" stop-opacity="1"></stop><stop offset="80%" stop-color="#2c7282" stop-opacity="1"></stop></linearGradient></defs><defs><linearGradient id="grad2_4" x1="0%" y1="100%" x2="66.7%" y2="0%"><stop offset="20%" stop-color="#284b5f" stop-opacity="1"></stop><stop offset="80%" stop-color="#1f2937" stop-opacity="1"></stop></linearGradient></defs><g transform="translate(900, 600)"><path d="M-402 0C-417.7 -50.4 -433.4 -100.8 -411.5 -133.7C-389.5 -166.6 -329.9 -182.1 -301.8 -219.2C-273.6 -256.4 -276.9 -315.3 -251.6 -346.3C-226.3 -377.2 -172.5 -380.1 -125.8 -387.1C-79.1 -394 -39.5 -405 0 -416L0 0Z" fill="#253a4b"></path><path d="M-321.6 0C-334.2 -40.3 -346.7 -80.6 -329.2 -107C-311.6 -133.3 -263.9 -145.7 -241.4 -175.4C-218.9 -205.1 -221.5 -252.3 -201.3 -277C-181 -301.7 -138 -304.1 -100.6 -309.7C-63.3 -315.2 -31.6 -324 0 -332.8L0 0Z" fill="#2a5e71"></path><path d="M-241.2 0C-250.6 -30.2 -260.1 -60.5 -246.9 -80.2C-233.7 -100 -198 -109.2 -181.1 -131.5C-164.2 -153.9 -166.1 -189.2 -150.9 -207.8C-135.8 -226.3 -103.5 -228.1 -75.5 -232.2C-47.4 -236.4 -23.7 -243 0 -249.6L0 0Z" fill="#308691"></path><path d="M-160.8 0C-167.1 -20.2 -173.4 -40.3 -164.6 -53.5C-155.8 -66.6 -132 -72.8 -120.7 -87.7C-109.4 -102.6 -110.7 -126.1 -100.6 -138.5C-90.5 -150.9 -69 -152 -50.3 -154.8C-31.6 -157.6 -15.8 -162 0 -166.4L0 0Z" fill="#4aafa6"></path><path d="M-80.4 0C-83.5 -10.1 -86.7 -20.2 -82.3 -26.7C-77.9 -33.3 -66 -36.4 -60.4 -43.8C-54.7 -51.3 -55.4 -63.1 -50.3 -69.3C-45.3 -75.4 -34.5 -76 -25.2 -77.4C-15.8 -78.8 -7.9 -81 0 -83.2L0 0Z" fill="#60c3ad"></path></g><g transform="translate(0, 0)"><path d="M420 0C413.1 43.8 406.2 87.7 388 126.1C369.8 164.5 340.3 197.4 313.1 227.5C285.9 257.5 261 284.7 232.8 320.4C204.6 356.1 173 400.3 133.7 411.5C94.4 422.7 47.2 400.8 0 379L0 0Z" fill="#253a4b"></path><path d="M336 0C330.5 35.1 325 70.1 310.4 100.9C295.9 131.6 272.2 157.9 250.5 182C228.7 206 208.8 227.7 186.2 256.3C163.6 284.9 138.4 320.2 107 329.2C75.5 338.1 37.7 320.7 0 303.2L0 0Z" fill="#2a5e71"></path><path d="M252 0C247.9 26.3 243.7 52.6 232.8 75.6C221.9 98.7 204.2 118.5 187.9 136.5C171.5 154.5 156.6 170.8 139.7 192.2C122.7 213.6 103.8 240.2 80.2 246.9C56.6 253.6 28.3 240.5 0 227.4L0 0Z" fill="#308691"></path><path d="M168 0C165.2 17.5 162.5 35.1 155.2 50.4C147.9 65.8 136.1 79 125.2 91C114.4 103 104.4 113.9 93.1 128.1C81.8 142.4 69.2 160.1 53.5 164.6C37.7 169.1 18.9 160.3 0 151.6L0 0Z" fill="#4aafa6"></path><path d="M84 0C82.6 8.8 81.2 17.5 77.6 25.2C74 32.9 68.1 39.5 62.6 45.5C57.2 51.5 52.2 56.9 46.6 64.1C40.9 71.2 34.6 80.1 26.7 82.3C18.9 84.5 9.4 80.2 0 75.8L0 0Z" fill="#60c3ad"></path></g></svg>