<svg id="visual" viewBox="0 0 900 600" width="900" height="600" xmlns="http://www.w3.org/2000/svg" xmlns:xlink="http://www.w3.org/1999/xlink" version="1.1"><rect x="0" y="0" width="900" height="600" fill="#F6FBFA"></rect><defs><linearGradient id="grad1_0" x1="33.3%" y1="100%" x2="100%" y2="0%"><stop offset="20%" stop-color="#96c9be" stop-opacity="1"></stop><stop offset="80%" stop-color="#96c9be" stop-opacity="1"></stop></linearGradient></defs><defs><linearGradient id="grad1_1" x1="33.3%" y1="100%" x2="100%" y2="0%"><stop offset="20%" stop-color="#96c9be" stop-opacity="1"></stop><stop offset="80%" stop-color="#b6dad2" stop-opacity="1"></stop></linearGradient></defs><defs><linearGradient id="grad1_2" x1="33.3%" y1="100%" x2="100%" y2="0%"><stop offset="20%" stop-color="#d6eae6" stop-opacity="1"></stop><stop offset="80%" stop-color="#b6dad2" stop-opacity="1"></stop></linearGradient></defs><defs><linearGradient id="grad1_3" x1="33.3%" y1="100%" x2="100%" y2="0%"><stop offset="20%" stop-color="#d6eae6" stop-opacity="1"></stop><stop offset="80%" stop-color="#f6fbfa" stop-opacity="1"></stop></linearGradient></defs><defs><linearGradient id="grad2_0" x1="0%" y1="100%" x2="66.7%" y2="0%"><stop offset="20%" stop-color="#96c9be" stop-opacity="1"></stop><stop offset="80%" stop-color="#96c9be" stop-opacity="1"></stop></linearGradient></defs><defs><linearGradient id="grad2_1" x1="0%" y1="100%" x2="66.7%" y2="0%"><stop offset="20%" stop-color="#b6dad2" stop-opacity="1"></stop><stop offset="80%" stop-color="#96c9be" stop-opacity="1"></stop></linearGradient></defs><defs><linearGradient id="grad2_2" x1="0%" y1="100%" x2="66.7%" y2="0%"><stop offset="20%" stop-color="#b6dad2" stop-opacity="1"></stop><stop offset="80%" stop-color="#d6eae6" stop-opacity="1"></stop></linearGradient></defs><defs><linearGradient id="grad2_3" x1="0%" y1="100%" x2="66.7%" y2="0%"><stop offset="20%" stop-color="#f6fbfa" stop-opacity="1"></stop><stop offset="80%" stop-color="#d6eae6" stop-opacity="1"></stop></linearGradient></defs><g transform="translate(900, 600)"><path d="M-422 0C-400.6 -38.3 -379.2 -76.5 -370 -120.2C-360.7 -163.9 -363.5 -212.9 -342.2 -248.6C-320.9 -284.3 -275.4 -306.7 -234.5 -322.8C-193.6 -338.9 -157.3 -348.9 -119 -366.2C-80.6 -383.4 -40.3 -408.1 0 -432.7L0 0Z" fill="#e6f3f0"></path><path d="M-316.5 0C-300.5 -28.7 -284.4 -57.4 -277.5 -90.2C-270.5 -122.9 -272.6 -159.7 -256.7 -186.5C-240.7 -213.2 -206.6 -230 -175.9 -242.1C-145.2 -254.2 -118 -261.7 -89.2 -274.6C-60.5 -287.6 -30.2 -306 0 -324.5L0 0Z" fill="#c6e2dc"></path><path d="M-211 0C-200.3 -19.1 -189.6 -38.3 -185 -60.1C-180.3 -81.9 -181.8 -106.5 -171.1 -124.3C-160.4 -142.2 -137.7 -153.3 -117.3 -161.4C-96.8 -169.5 -78.6 -174.4 -59.5 -183.1C-40.3 -191.7 -20.2 -204 0 -216.3L0 0Z" fill="#a6d1c8"></path><path d="M-105.5 0C-100.2 -9.6 -94.8 -19.1 -92.5 -30.1C-90.2 -41 -90.9 -53.2 -85.6 -62.2C-80.2 -71.1 -68.9 -76.7 -58.6 -80.7C-48.4 -84.7 -39.3 -87.2 -29.7 -91.5C-20.2 -95.9 -10.1 -102 0 -108.2L0 0Z" fill="#96c9be"></path></g><g transform="translate(0, 0)"><path d="M418 0C407.1 43.9 396.1 87.7 375.7 122.1C355.2 156.4 325.3 181.3 306.6 222.8C288 264.3 280.7 322.5 248.6 342.2C216.6 361.9 159.9 343.2 114.3 351.9C68.8 360.6 34.4 396.6 0 432.7L0 0Z" fill="#e6f3f0"></path><path d="M313.5 0C305.3 32.9 297.1 65.8 281.8 91.5C266.4 117.3 243.9 135.9 230 167.1C216 198.2 210.5 241.9 186.5 256.7C162.5 271.5 119.9 257.4 85.8 263.9C51.6 270.4 25.8 297.5 0 324.5L0 0Z" fill="#c6e2dc"></path><path d="M209 0C203.5 21.9 198.1 43.9 187.8 61C177.6 78.2 162.6 90.6 153.3 111.4C144 132.1 140.3 161.2 124.3 171.1C108.3 181 79.9 171.6 57.2 175.9C34.4 180.3 17.2 198.3 0 216.3L0 0Z" fill="#a6d1c8"></path><path d="M104.5 0C101.8 11 99 21.9 93.9 30.5C88.8 39.1 81.3 45.3 76.7 55.7C72 66.1 70.2 80.6 62.2 85.6C54.2 90.5 40 85.8 28.6 88C17.2 90.1 8.6 99.2 0 108.2L0 0Z" fill="#96c9be"></path></g></svg>