<svg id="visual" viewBox="0 0 900 600" width="900" height="600" xmlns="http://www.w3.org/2000/svg" xmlns:xlink="http://www.w3.org/1999/xlink" version="1.1"><rect x="0" y="0" width="900" height="600" fill="#1F2937"></rect><defs><linearGradient id="grad1_0" x1="33.3%" y1="0%" x2="100%" y2="100%"><stop offset="20%" stop-color="#e4fffa" stop-opacity="1"></stop><stop offset="80%" stop-color="#e4fffa" stop-opacity="1"></stop></linearGradient></defs><defs><linearGradient id="grad1_1" x1="33.3%" y1="0%" x2="100%" y2="100%"><stop offset="20%" stop-color="#e4fffa" stop-opacity="1"></stop><stop offset="80%" stop-color="#c2dedd" stop-opacity="1"></stop></linearGradient></defs><defs><linearGradient id="grad1_2" x1="33.3%" y1="0%" x2="100%" y2="100%"><stop offset="20%" stop-color="#a1bdc0" stop-opacity="1"></stop><stop offset="80%" stop-color="#c2dedd" stop-opacity="1"></stop></linearGradient></defs><defs><linearGradient id="grad1_3" x1="33.3%" y1="0%" x2="100%" y2="100%"><stop offset="20%" stop-color="#a1bdc0" stop-opacity="1"></stop><stop offset="80%" stop-color="#839da4" stop-opacity="1"></stop></linearGradient></defs><defs><linearGradient id="grad1_4" x1="33.3%" y1="0%" x2="100%" y2="100%"><stop offset="20%" stop-color="#677e88" stop-opacity="1"></stop><stop offset="80%" stop-color="#839da4" stop-opacity="1"></stop></linearGradient></defs><defs><linearGradient id="grad1_5" x1="33.3%" y1="0%" x2="100%" y2="100%"><stop offset="20%" stop-color="#677e88" stop-opacity="1"></stop><stop offset="80%" stop-color="#4d606c" stop-opacity="1"></stop></linearGradient></defs><defs><linearGradient id="grad1_6" x1="33.3%" y1="0%" x2="100%" y2="100%"><stop offset="20%" stop-color="#354451" stop-opacity="1"></stop><stop offset="80%" stop-color="#4d606c" stop-opacity="1"></stop></linearGradient></defs><defs><linearGradient id="grad1_7" x1="33.3%" y1="0%" x2="100%" y2="100%"><stop offset="20%" stop-color="#354451" stop-opacity="1"></stop><stop offset="80%" stop-color="#1f2937" stop-opacity="1"></stop></linearGradient></defs><defs><linearGradient id="grad2_0" x1="0%" y1="0%" x2="66.7%" y2="100%"><stop offset="20%" stop-color="#e4fffa" stop-opacity="1"></stop><stop offset="80%" stop-color="#e4fffa" stop-opacity="1"></stop></linearGradient></defs><defs><linearGradient id="grad2_1" x1="0%" y1="0%" x2="66.7%" y2="100%"><stop offset="20%" stop-color="#c2dedd" stop-opacity="1"></stop><stop offset="80%" stop-color="#e4fffa" stop-opacity="1"></stop></linearGradient></defs><defs><linearGradient id="grad2_2" x1="0%" y1="0%" x2="66.7%" y2="100%"><stop offset="20%" stop-color="#c2dedd" stop-opacity="1"></stop><stop offset="80%" stop-color="#a1bdc0" stop-opacity="1"></stop></linearGradient></defs><defs><linearGradient id="grad2_3" x1="0%" y1="0%" x2="66.7%" y2="100%"><stop offset="20%" stop-color="#839da4" stop-opacity="1"></stop><stop offset="80%" stop-color="#a1bdc0" stop-opacity="1"></stop></linearGradient></defs><defs><linearGradient id="grad2_4" x1="0%" y1="0%" x2="66.7%" y2="100%"><stop offset="20%" stop-color="#839da4" stop-opacity="1"></stop><stop offset="80%" stop-color="#677e88" stop-opacity="1"></stop></linearGradient></defs><defs><linearGradient id="grad2_5" x1="0%" y1="0%" x2="66.7%" y2="100%"><stop offset="20%" stop-color="#4d606c" stop-opacity="1"></stop><stop offset="80%" stop-color="#677e88" stop-opacity="1"></stop></linearGradient></defs><defs><linearGradient id="grad2_6" x1="0%" y1="0%" x2="66.7%" y2="100%"><stop offset="20%" stop-color="#4d606c" stop-opacity="1"></stop><stop offset="80%" stop-color="#354451" stop-opacity="1"></stop></linearGradient></defs><defs><linearGradient id="grad2_7" x1="0%" y1="0%" x2="66.7%" y2="100%"><stop offset="20%" stop-color="#1f2937" stop-opacity="1"></stop><stop offset="80%" stop-color="#354451" stop-opacity="1"></stop></linearGradient></defs><g transform="translate(900, 0)"><path d="M0 486.7C-60.2 464.3 -120.3 441.8 -171.1 413C-221.8 384.1 -263.2 348.9 -312.5 312.5C-361.9 276.1 -419.3 238.6 -449.7 186.3C-480.1 134 -483.4 67 -486.7 0L0 0Z" fill="#2a3644"></path><path d="M0 425.9C-52.6 406.2 -105.3 386.6 -149.7 361.4C-194.1 336.1 -230.3 305.3 -273.5 273.5C-316.7 241.6 -366.9 208.7 -393.5 163C-420.1 117.2 -423 58.6 -425.9 0L0 0Z" fill="#40525f"></path><path d="M0 365.1C-45.1 348.2 -90.2 331.4 -128.3 309.7C-166.4 288.1 -197.4 261.7 -234.4 234.4C-271.4 207.1 -314.5 178.9 -337.3 139.7C-360.1 100.5 -362.6 50.2 -365.1 0L0 0Z" fill="#596f7a"></path><path d="M0 304.2C-37.6 290.2 -75.2 276.1 -106.9 258.1C-138.6 240.1 -164.5 218.1 -195.3 195.3C-226.2 172.6 -262.1 149.1 -281.1 116.4C-300 83.7 -302.1 41.9 -304.2 0L0 0Z" fill="#748d96"></path><path d="M0 243.4C-30.1 232.1 -60.2 220.9 -85.5 206.5C-110.9 192.1 -131.6 174.5 -156.3 156.3C-181 138.1 -209.7 119.3 -224.8 93.1C-240 67 -241.7 33.5 -243.4 0L0 0Z" fill="#92adb2"></path><path d="M0 182.5C-22.6 174.1 -45.1 165.7 -64.1 154.9C-83.2 144.1 -98.7 130.9 -117.2 117.2C-135.7 103.6 -157.2 89.5 -168.6 69.9C-180 50.2 -181.3 25.1 -182.5 0L0 0Z" fill="#b1cdce"></path><path d="M0 121.7C-15 116.1 -30.1 110.5 -42.8 103.2C-55.5 96 -65.8 87.2 -78.1 78.1C-90.5 69 -104.8 59.6 -112.4 46.6C-120 33.5 -120.9 16.7 -121.7 0L0 0Z" fill="#d3eeeb"></path><path d="M0 60.8C-7.5 58 -15 55.2 -21.4 51.6C-27.7 48 -32.9 43.6 -39.1 39.1C-45.2 34.5 -52.4 29.8 -56.2 23.3C-60 16.7 -60.4 8.4 -60.8 0L0 0Z" fill="#e4fffa"></path></g><g transform="translate(0, 600)"><path d="M0 -486.7C59.1 -468.1 118.1 -449.5 177.6 -428.7C237 -407.8 296.8 -384.7 344.2 -344.2C391.5 -303.7 426.4 -245.9 448.1 -185.6C469.8 -125.3 478.3 -62.7 486.7 0L0 0Z" fill="#2a3644"></path><path d="M0 -425.9C51.7 -409.6 103.4 -393.4 155.4 -375.1C207.4 -356.8 259.7 -336.6 301.2 -301.2C342.6 -265.7 373.1 -215.1 392.1 -162.4C411 -109.7 418.5 -54.8 425.9 0L0 0Z" fill="#40525f"></path><path d="M0 -365.1C44.3 -351.1 88.6 -337.2 133.2 -321.5C177.8 -305.9 222.6 -288.5 258.1 -258.1C293.6 -227.8 319.8 -184.4 336.1 -139.2C352.3 -94 358.7 -47 365.1 0L0 0Z" fill="#596f7a"></path><path d="M0 -304.2C36.9 -292.6 73.8 -281 111 -267.9C148.1 -254.9 185.5 -240.4 215.1 -215.1C244.7 -189.8 266.5 -153.7 280.1 -116C293.6 -78.3 298.9 -39.2 304.2 0L0 0Z" fill="#748d96"></path><path d="M0 -243.4C29.5 -234.1 59.1 -224.8 88.8 -214.3C118.5 -203.9 148.4 -192.3 172.1 -172.1C195.8 -151.8 213.2 -122.9 224 -92.8C234.9 -62.7 239.1 -31.3 243.4 0L0 0Z" fill="#92adb2"></path><path d="M0 -182.5C22.1 -175.6 44.3 -168.6 66.6 -160.8C88.9 -152.9 111.3 -144.3 129.1 -129.1C146.8 -113.9 159.9 -92.2 168 -69.6C176.2 -47 179.3 -23.5 182.5 0L0 0Z" fill="#b1cdce"></path><path d="M0 -121.7C14.8 -117 29.5 -112.4 44.4 -107.2C59.3 -102 74.2 -96.2 86 -86C97.9 -75.9 106.6 -61.5 112 -46.4C117.4 -31.3 119.6 -15.7 121.7 0L0 0Z" fill="#d3eeeb"></path><path d="M0 -60.8C7.4 -58.5 14.8 -56.2 22.2 -53.6C29.6 -51 37.1 -48.1 43 -43C48.9 -38 53.3 -30.7 56 -23.2C58.7 -15.7 59.8 -7.8 60.8 0L0 0Z" fill="#e4fffa"></path></g></svg>