<svg id="visual" viewBox="0 0 900 600" width="900" height="600" xmlns="http://www.w3.org/2000/svg" xmlns:xlink="http://www.w3.org/1999/xlink" version="1.1"><rect x="0" y="0" width="900" height="600" fill="#F6FBFA"></rect><defs><linearGradient id="grad1_0" x1="33.3%" y1="100%" x2="100%" y2="0%"><stop offset="20%" stop-color="#458b7c" stop-opacity="1"></stop><stop offset="80%" stop-color="#458b7c" stop-opacity="1"></stop></linearGradient></defs><defs><linearGradient id="grad1_1" x1="33.3%" y1="100%" x2="100%" y2="0%"><stop offset="20%" stop-color="#458b7c" stop-opacity="1"></stop><stop offset="80%" stop-color="#5f9b8d" stop-opacity="1"></stop></linearGradient></defs><defs><linearGradient id="grad1_2" x1="33.3%" y1="100%" x2="100%" y2="0%"><stop offset="20%" stop-color="#78aa9f" stop-opacity="1"></stop><stop offset="80%" stop-color="#5f9b8d" stop-opacity="1"></stop></linearGradient></defs><defs><linearGradient id="grad1_3" x1="33.3%" y1="100%" x2="100%" y2="0%"><stop offset="20%" stop-color="#78aa9f" stop-opacity="1"></stop><stop offset="80%" stop-color="#91bab1" stop-opacity="1"></stop></linearGradient></defs><defs><linearGradient id="grad1_4" x1="33.3%" y1="100%" x2="100%" y2="0%"><stop offset="20%" stop-color="#aacac3" stop-opacity="1"></stop><stop offset="80%" stop-color="#91bab1" stop-opacity="1"></stop></linearGradient></defs><defs><linearGradient id="grad1_5" x1="33.3%" y1="100%" x2="100%" y2="0%"><stop offset="20%" stop-color="#aacac3" stop-opacity="1"></stop><stop offset="80%" stop-color="#c3dad5" stop-opacity="1"></stop></linearGradient></defs><defs><linearGradient id="grad1_6" x1="33.3%" y1="100%" x2="100%" y2="0%"><stop offset="20%" stop-color="#dcebe8" stop-opacity="1"></stop><stop offset="80%" stop-color="#c3dad5" stop-opacity="1"></stop></linearGradient></defs><defs><linearGradient id="grad1_7" x1="33.3%" y1="100%" x2="100%" y2="0%"><stop offset="20%" stop-color="#dcebe8" stop-opacity="1"></stop><stop offset="80%" stop-color="#f6fbfa" stop-opacity="1"></stop></linearGradient></defs><defs><linearGradient id="grad2_0" x1="0%" y1="100%" x2="66.7%" y2="0%"><stop offset="20%" stop-color="#458b7c" stop-opacity="1"></stop><stop offset="80%" stop-color="#458b7c" stop-opacity="1"></stop></linearGradient></defs><defs><linearGradient id="grad2_1" x1="0%" y1="100%" x2="66.7%" y2="0%"><stop offset="20%" stop-color="#5f9b8d" stop-opacity="1"></stop><stop offset="80%" stop-color="#458b7c" stop-opacity="1"></stop></linearGradient></defs><defs><linearGradient id="grad2_2" x1="0%" y1="100%" x2="66.7%" y2="0%"><stop offset="20%" stop-color="#5f9b8d" stop-opacity="1"></stop><stop offset="80%" stop-color="#78aa9f" stop-opacity="1"></stop></linearGradient></defs><defs><linearGradient id="grad2_3" x1="0%" y1="100%" x2="66.7%" y2="0%"><stop offset="20%" stop-color="#91bab1" stop-opacity="1"></stop><stop offset="80%" stop-color="#78aa9f" stop-opacity="1"></stop></linearGradient></defs><defs><linearGradient id="grad2_4" x1="0%" y1="100%" x2="66.7%" y2="0%"><stop offset="20%" stop-color="#91bab1" stop-opacity="1"></stop><stop offset="80%" stop-color="#aacac3" stop-opacity="1"></stop></linearGradient></defs><defs><linearGradient id="grad2_5" x1="0%" y1="100%" x2="66.7%" y2="0%"><stop offset="20%" stop-color="#c3dad5" stop-opacity="1"></stop><stop offset="80%" stop-color="#aacac3" stop-opacity="1"></stop></linearGradient></defs><defs><linearGradient id="grad2_6" x1="0%" y1="100%" x2="66.7%" y2="0%"><stop offset="20%" stop-color="#c3dad5" stop-opacity="1"></stop><stop offset="80%" stop-color="#dcebe8" stop-opacity="1"></stop></linearGradient></defs><defs><linearGradient id="grad2_7" x1="0%" y1="100%" x2="66.7%" y2="0%"><stop offset="20%" stop-color="#f6fbfa" stop-opacity="1"></stop><stop offset="80%" stop-color="#dcebe8" stop-opacity="1"></stop></linearGradient></defs><g transform="translate(900, 600)"><path d="M-486.7 0C-472.1 -59.8 -457.5 -119.6 -437 -181C-416.5 -242.5 -390 -305.5 -344.2 -344.2C-298.4 -382.8 -233.2 -397 -172.6 -416.7C-112 -436.4 -56 -461.6 0 -486.7L0 0Z" fill="#e9f3f1"></path><path d="M-425.9 0C-413.1 -52.3 -400.3 -104.6 -382.4 -158.4C-364.4 -212.1 -341.3 -267.4 -301.2 -301.2C-261.1 -335 -204 -347.4 -151 -364.6C-98 -381.8 -49 -403.9 0 -425.9L0 0Z" fill="#d0e2de"></path><path d="M-365.1 0C-354.1 -44.8 -343.1 -89.7 -327.7 -135.8C-312.3 -181.8 -292.5 -229.2 -258.1 -258.1C-223.8 -287.1 -174.9 -297.7 -129.4 -312.5C-84 -327.3 -42 -346.2 0 -365.1L0 0Z" fill="#b6d2cc"></path><path d="M-304.2 0C-295.1 -37.4 -286 -74.7 -273.1 -113.1C-260.3 -151.5 -243.8 -191 -215.1 -215.1C-186.5 -239.3 -145.7 -248.1 -107.9 -260.4C-70 -272.7 -35 -288.5 0 -304.2L0 0Z" fill="#9dc2ba"></path><path d="M-243.4 0C-236.1 -29.9 -228.8 -59.8 -218.5 -90.5C-208.2 -121.2 -195 -152.8 -172.1 -172.1C-149.2 -191.4 -116.6 -198.5 -86.3 -208.3C-56 -218.2 -28 -230.8 0 -243.4L0 0Z" fill="#85b2a8"></path><path d="M-182.5 0C-177.1 -22.4 -171.6 -44.8 -163.9 -67.9C-156.2 -90.9 -146.3 -114.6 -129.1 -129.1C-111.9 -143.6 -87.4 -148.9 -64.7 -156.3C-42 -163.6 -21 -173.1 0 -182.5L0 0Z" fill="#6ca296"></path><path d="M-121.7 0C-118 -14.9 -114.4 -29.9 -109.2 -45.3C-104.1 -60.6 -97.5 -76.4 -86 -86C-74.6 -95.7 -58.3 -99.2 -43.1 -104.2C-28 -109.1 -14 -115.4 0 -121.7L0 0Z" fill="#529385"></path><path d="M-60.8 0C-59 -7.5 -57.2 -14.9 -54.6 -22.6C-52.1 -30.3 -48.8 -38.2 -43 -43C-37.3 -47.9 -29.1 -49.6 -21.6 -52.1C-14 -54.5 -7 -57.7 0 -60.8L0 0Z" fill="#458b7c"></path></g><g transform="translate(0, 0)"><path d="M486.7 0C481.2 66.9 475.6 133.8 445.3 184.5C415 235.1 359.8 269.3 315.4 315.4C270.9 361.4 237.1 419.2 186.3 449.7C135.5 480.2 67.7 483.5 0 486.7L0 0Z" fill="#e9f3f1"></path><path d="M425.9 0C421 58.6 416.2 117.1 389.6 161.4C363.1 205.7 314.9 235.7 275.9 275.9C237 316.2 207.4 366.8 163 393.5C118.5 420.2 59.3 423 0 425.9L0 0Z" fill="#d0e2de"></path><path d="M365.1 0C360.9 50.2 356.7 100.4 334 138.3C311.2 176.3 269.9 202 236.5 236.5C203.2 271 177.8 314.4 139.7 337.3C101.6 360.2 50.8 362.6 0 365.1L0 0Z" fill="#b6d2cc"></path><path d="M304.2 0C300.7 41.8 297.3 83.7 278.3 115.3C259.4 146.9 224.9 168.3 197.1 197.1C169.3 225.9 148.2 262 116.4 281.1C84.7 300.1 42.3 302.2 0 304.2L0 0Z" fill="#9dc2ba"></path><path d="M243.4 0C240.6 33.5 237.8 66.9 222.7 92.2C207.5 117.5 179.9 134.7 157.7 157.7C135.4 180.7 118.5 209.6 93.1 224.8C67.7 240.1 33.9 241.7 0 243.4L0 0Z" fill="#85b2a8"></path><path d="M182.5 0C180.4 25.1 178.4 50.2 167 69.2C155.6 88.1 134.9 101 118.3 118.3C101.6 135.5 88.9 157.2 69.9 168.6C50.8 180.1 25.4 181.3 0 182.5L0 0Z" fill="#6ca296"></path><path d="M121.7 0C120.3 16.7 118.9 33.5 111.3 46.1C103.7 58.8 90 67.3 78.8 78.8C67.7 90.3 59.3 104.8 46.6 112.4C33.9 120.1 16.9 120.9 0 121.7L0 0Z" fill="#529385"></path><path d="M60.8 0C60.1 8.4 59.5 16.7 55.7 23.1C51.9 29.4 45 33.7 39.4 39.4C33.9 45.2 29.6 52.4 23.3 56.2C16.9 60 8.5 60.4 0 60.8L0 0Z" fill="#458b7c"></path></g></svg>